<?xml version="1.0" encoding="UTF-8" standalone="no"?>
<!-- Created with Inkscape (http://www.inkscape.org/) -->

<svg
   width="6.8496308mm"
   height="6.7583022mm"
   viewBox="0 0 6.8496308 6.7583022"
   version="1.1"
   id="svg1"
   xmlns:xlink="http://www.w3.org/1999/xlink"
   xmlns="http://www.w3.org/2000/svg"
   xmlns:svg="http://www.w3.org/2000/svg">
  <defs
     id="defs1">
    <linearGradient
       id="linearGradient2">
      <stop
         style="stop-color:#e5c800;stop-opacity:1;"
         offset="0"
         id="stop2" />
      <stop
         style="stop-color:#ff1414;stop-opacity:1;"
         offset="0.52365929"
         id="stop4" />
      <stop
         style="stop-color:#00fff1;stop-opacity:1;"
         offset="1"
         id="stop3" />
    </linearGradient>
    <linearGradient
       xlink:href="#linearGradient2"
       id="linearGradient3"
       x1="10.594095"
       y1="11.279058"
       x2="19.909594"
       y2="11.324723"
       gradientUnits="userSpaceOnUse"
       gradientTransform="matrix(0.73529412,0,0,1,-7.7741072,-7.8413441)" />
  </defs>
  <g
     id="layer1"
     transform="translate(-0.01566918,-0.01289919)">
    <rect
       style="fill:url(#linearGradient3);fill-opacity:1;stroke-width:0.226878"
       id="rect1"
       width="6.8496313"
       height="6.7583022"
       x="0.015669176"
       y="0.012899193" />
    <g
       id="layer2"
       transform="translate(0,-0.13699262)">
      <path
         style="font-family:'Arial Rounded MT Bold';-inkscape-font-specification:'Arial Rounded MT Bold, ';white-space:pre;fill:#1a1a1a;stroke-width:0.264583"
         d="m 3.3653367,4.0047363 q 0,0.1085205 -0.05426,0.2356445 -0.05271,0.1255737 -0.1674318,0.2480469 -0.1147215,0.1209228 -0.2930054,0.196887 -0.1782836,0.075965 -0.4154784,0.075965 -0.1798341,0 -0.3271117,-0.034107 Q 1.9607712,4.6930662 1.8398484,4.6217528 1.7204759,4.548889 1.6197069,4.4310668 1.5297899,4.3240966 1.4662279,4.1923217 1.4026658,4.0589965 1.3701096,3.9086179 1.3391039,3.7582396 1.3391039,3.5892577 q 0,-0.2744018 0.079065,-0.4914429 Q 1.4987839,2.8807739 1.647612,2.7272949 1.7964401,2.5722655 1.9964281,2.4916504 2.1964158,2.411035 2.4227586,2.411035 q 0.2759522,0 0.4914429,0.1100709 0.2154907,0.1100707 0.3302124,0.2728516 0.1147215,0.1612305 0.1147215,0.3054077 0,0.079065 -0.05581,0.1395262 -0.055811,0.060462 -0.1348756,0.060462 -0.088367,0 -0.1333251,-0.041858 Q 2.9917162,3.2156372 2.9374557,3.1133178 2.8475389,2.9443358 2.7250657,2.86062 2.6041429,2.7769043 2.4258592,2.7769043 q -0.2837037,0 -0.4526856,0.2154907 -0.1674315,0.2154907 -0.1674315,0.6123657 0,0.2651 0.074414,0.4418335 0.074414,0.175183 0.2108399,0.2619994 0.1364257,0.086816 0.3193603,0.086816 0.1984374,0 0.3348632,-0.097668 0.137976,-0.099219 0.2077392,-0.289905 0.029456,-0.089917 0.072864,-0.1457275 0.043408,-0.057361 0.1395264,-0.057361 0.082165,0 0.1410766,0.057361 0.058911,0.057361 0.058911,0.1426272 z m 2.1409541,0.035657 q 0,0.206189 -0.1069684,0.3705201 Q 5.2939018,4.5752445 5.0892625,4.668262 4.8846237,4.76128 4.6040209,4.76128 4.2676071,4.76128 4.0490158,4.6341559 3.8939866,4.5426879 3.7963181,4.3907592 3.7002,4.2372802 3.7002,4.0931029 q 0,-0.083716 0.057361,-0.1426268 0.058911,-0.060461 0.1488281,-0.060461 0.072864,0 0.122473,0.046509 0.05116,0.046509 0.086816,0.1379762 0.043408,0.1085205 0.093018,0.1813841 0.051159,0.072864 0.1426268,0.120923 0.091467,0.046509 0.2402956,0.046509 0.2046386,0 0.3317627,-0.094568 0.1286742,-0.096118 0.1286742,-0.2387451 0,-0.1131713 -0.069763,-0.1829345 Q 4.9140795,3.8357543 4.8040086,3.7985473 4.6954881,3.7613403 4.5125534,3.7194824 4.2676071,3.6621215 4.1017258,3.586157 3.9373947,3.5086426 3.8397264,3.3768676 3.7436081,3.2435425 3.7436081,3.0466552 q 0,-0.1875853 0.1023194,-0.3333131 0.1023194,-0.1457275 0.296106,-0.2232422 0.1937867,-0.079065 0.4557861,-0.079065 0.2092896,0 0.3612181,0.05271 0.153479,0.051159 0.2542482,0.1379759 0.1007692,0.085266 0.1472777,0.1798341 0.046508,0.094568 0.046508,0.1844847 0,0.082166 -0.05891,0.1488282 -0.057362,0.065112 -0.1441793,0.065112 -0.079063,0 -0.1209226,-0.038757 Q 5.0427537,3.1009154 4.9946946,3.0109984 4.9326828,2.8823241 4.8458664,2.8110107 4.75905,2.7381468 4.5668138,2.7381468 q -0.1782839,0 -0.2883545,0.079065 -0.1085205,0.077515 -0.1085205,0.1875856 0,0.068213 0.037207,0.1178222 0.037207,0.049609 0.1023191,0.085266 0.065112,0.035657 0.1317749,0.05581 0.066663,0.020153 0.2201416,0.058911 0.1922364,0.044958 0.3472656,0.099219 0.1565799,0.05426 0.2651014,0.1317749 0.1100693,0.077514 0.1705319,0.196887 0.06201,0.1178224 0.06201,0.2899048 z"
         id="text5"
         aria-label="CS" />
    </g>
  </g>
</svg>
